<svg width="1352" height="1213" viewBox="0 0 1352 1213" fill="none" xmlns="http://www.w3.org/2000/svg">
<path d="M676 982.5L567.25 1170.86H349.75L241 982.5L349.75 794.139H567.25L676 982.5Z" fill="white" fill-opacity="0.25"/>
<path d="M893 608.5L784.25 796.861H566.75L458 608.5L566.75 420.139H784.25L893 608.5Z" fill="white" fill-opacity="0.5"/>
<path d="M1111 231.5L1002.25 419.861H784.75L676 231.5L784.75 43.1395H1002.25L1111 231.5Z" fill="white" fill-opacity="0.5"/>
<path d="M893 231.5L784.25 419.861H566.75L458 231.5L566.75 43.1395H784.25L893 231.5Z" fill="white" fill-opacity="0.75"/>
<path d="M676 608.5L567.25 796.861H349.75L241 608.5L349.75 420.139H567.25L676 608.5Z" fill="white" fill-opacity="0.75"/>
<path d="M676 231.5L567.25 419.861H349.75L241 231.5L349.75 43.1395H567.25L676 231.5Z" fill="white"/>
</svg>
